<?xml version="1.0" standalone="no"?>
<!DOCTYPE svg PUBLIC "-//W3C//DTD SVG 20010904//EN"
 "http://www.w3.org/TR/2001/REC-SVG-20010904/DTD/svg10.dtd">
<svg version="1.0" xmlns="http://www.w3.org/2000/svg"
 width="170.000000pt" height="157.000000pt" viewBox="0 0 170.000000 157.000000"
 preserveAspectRatio="xMidYMid meet">
<metadata>
Created by potrace 1.10, written by Peter Selinger 2001-2011
</metadata>
<g transform="translate(0.000000,157.000000) scale(0.100000,-0.100000)"
fill="#000000" stroke="none">
<path d="M416 1285 c-393 -267 -417 -285 -380 -285 34 0 84 30 420 254 l382
255 381 -255 c377 -252 383 -255 429 -252 l47 3 -421 280 c-232 153 -426 280
-430 282 -5 1 -198 -126 -428 -282z"/>
<path d="M1218 915 c-28 -16 -43 -49 -36 -82 2 -10 29 -35 61 -56 47 -32 57
-43 57 -67 0 -55 -79 -66 -102 -15 -16 36 -32 31 -24 -7 8 -42 8 -41 67 -42
44 -1 54 3 75 27 43 50 29 84 -58 136 -20 12 -40 31 -43 41 -9 28 12 60 40 60
24 0 55 -23 55 -41 0 -5 5 -9 10 -9 12 0 13 30 2 48 -13 20 -74 24 -104 7z"/>
<path d="M431 791 c-37 -91 -59 -132 -74 -139 -18 -9 -12 -11 38 -11 49 0 56
2 40 11 -11 6 -22 12 -23 14 -2 1 1 19 8 38 11 35 13 36 59 36 46 0 48 -1 59
-37 10 -31 9 -38 -6 -49 -15 -12 -9 -13 41 -14 36 0 56 4 52 10 -3 6 -12 10
-20 10 -13 0 -25 26 -80 183 -15 42 -31 77 -35 77 -4 0 -31 -58 -59 -129z m70
14 l17 -45 -38 0 -38 0 16 50 c9 27 18 47 21 44 3 -3 13 -25 22 -49z"/>
<path d="M750 911 c0 -4 9 -12 20 -19 18 -11 20 -23 20 -121 0 -104 -1 -109
-22 -116 -22 -8 -22 -8 4 -12 16 -2 40 -2 55 0 27 4 27 4 6 12 -22 7 -23 13
-23 103 l0 96 81 -109 c45 -61 84 -111 88 -113 4 -1 8 55 9 125 2 99 6 131 17
139 23 17 19 19 -30 18 -41 -1 -80 -14 -43 -14 31 0 39 -26 36 -112 l-3 -83
-78 101 c-62 82 -83 103 -107 106 -17 3 -30 2 -30 -1z"/>
<path d="M664 686 c-9 -24 4 -48 23 -44 12 2 18 12 18 28 0 29 -32 41 -41 16z"/>
<path d="M1064 686 c-9 -24 4 -48 23 -44 12 2 18 12 18 28 0 29 -32 41 -41 16z"/>
<path d="M1057 360 c-11 -13 -17 -37 -17 -70 0 -49 1 -50 30 -50 17 0 30 5 30
11 0 6 -9 9 -20 6 -15 -4 -20 0 -20 14 0 12 5 16 14 13 8 -3 17 -1 21 5 3 7
-2 11 -14 11 -12 0 -21 7 -21 15 0 8 9 15 20 15 11 0 20 5 20 10 0 6 -7 10
-16 10 -14 0 -14 3 -4 15 7 8 8 15 3 15 -5 0 -16 -9 -26 -20z"/>
<path d="M1247 360 c-11 -13 -17 -37 -17 -70 0 -49 1 -50 30 -50 17 0 30 5 30
11 0 6 -9 9 -20 6 -15 -4 -20 0 -20 14 0 12 5 16 14 13 8 -3 17 -1 21 5 3 7
-2 11 -14 11 -12 0 -21 7 -21 15 0 8 9 15 20 15 11 0 20 5 20 10 0 6 -7 10
-16 10 -14 0 -14 3 -4 15 7 8 8 15 3 15 -5 0 -16 -9 -26 -20z"/>
<path d="M60 295 l0 -55 36 0 c21 0 33 4 29 10 -3 6 -15 10 -26 10 -11 0 -19
7 -19 16 0 11 6 14 20 9 11 -4 20 -2 20 4 0 6 -9 11 -20 11 -11 0 -20 7 -20
15 0 8 9 15 20 15 11 0 20 5 20 10 0 6 -13 10 -30 10 -30 0 -30 -1 -30 -55z"/>
<path d="M140 295 c0 -30 5 -55 10 -55 6 0 10 19 10 43 l0 42 26 -42 c14 -24
29 -43 35 -43 5 0 9 25 9 55 0 33 -4 55 -11 55 -7 0 -9 -15 -4 -42 l6 -43 -20
25 c-11 14 -23 33 -27 43 -3 9 -12 17 -20 17 -10 0 -14 -14 -14 -55z"/>
<path d="M240 340 c0 -5 7 -10 15 -10 11 0 15 -12 15 -45 0 -25 5 -45 10 -45
6 0 10 20 10 45 0 33 4 45 15 45 8 0 15 5 15 10 0 6 -18 10 -40 10 -22 0 -40
-4 -40 -10z"/>
<path d="M337 343 c-8 -15 -5 -103 4 -103 5 0 9 9 9 20 0 26 14 25 33 -2 15
-24 36 -20 21 4 -5 7 -9 29 -9 48 0 30 -3 35 -27 38 -14 2 -28 0 -31 -5z"/>
<path d="M430 295 c0 -55 0 -55 31 -55 18 0 28 4 24 10 -4 6 -14 9 -23 8 -10
-2 -17 4 -17 12 0 9 7 14 18 12 9 -2 17 2 17 8 0 5 -9 10 -20 10 -11 0 -20 7
-20 15 0 8 9 15 19 15 11 0 23 5 26 10 4 6 -7 10 -24 10 -31 0 -31 0 -31 -55z"/>
<path d="M502 296 c0 -31 5 -56 9 -56 5 0 9 9 9 19 0 13 8 21 23 23 17 2 22
10 22 33 0 26 -4 30 -32 33 l-31 3 0 -55z m51 27 c8 -7 -11 -33 -24 -33 -5 0
-9 9 -9 20 0 19 20 27 33 13z"/>
<path d="M590 295 c0 -30 5 -55 10 -55 6 0 10 9 10 20 0 11 3 20 8 20 4 0 13
-9 20 -20 7 -11 17 -20 23 -20 7 0 6 8 -3 23 -11 16 -12 26 -5 39 14 22 -7 48
-39 48 -22 0 -24 -4 -24 -55z"/>
<path d="M680 295 c0 -30 5 -55 10 -55 6 0 10 25 10 55 0 30 -4 55 -10 55 -5
0 -10 -25 -10 -55z"/>
<path d="M727 343 c-15 -15 -5 -44 18 -55 30 -13 27 -34 -4 -31 -24 3 -29 -12
-6 -21 44 -16 68 30 31 59 -31 25 -33 35 -6 35 11 0 20 5 20 10 0 11 -43 14
-53 3z"/>
<path d="M803 295 l2 -55 33 0 c20 0 31 4 27 10 -3 6 -15 10 -26 10 -11 0 -19
7 -19 16 0 11 6 14 20 9 11 -4 20 -2 20 4 0 6 -9 11 -20 11 -11 0 -20 7 -20
15 0 8 9 15 20 15 11 0 20 5 20 10 0 6 -13 10 -29 10 -29 0 -29 -1 -28 -55z"/>
<path d="M946 334 c-40 -39 -1 -111 52 -97 30 7 32 63 2 63 -11 0 -20 -4 -20
-10 0 -5 5 -10 10 -10 6 0 10 -7 10 -15 0 -8 -6 -15 -12 -15 -26 0 -40 18 -36
46 2 25 8 29 36 32 18 2 30 8 27 13 -10 14 -52 11 -69 -7z"/>
<path d="M1120 295 c0 -33 4 -55 11 -55 7 0 8 14 4 40 -4 22 -4 40 -2 40 3 0
16 -18 28 -40 32 -57 49 -52 49 15 0 30 -4 55 -10 55 -5 0 -10 -19 -10 -42 l0
-43 -26 43 c-14 23 -29 42 -35 42 -5 0 -9 -25 -9 -55z"/>
<path d="M1310 295 c0 -32 4 -55 11 -55 6 0 8 9 4 20 -4 14 -2 20 9 20 8 0 18
-9 21 -20 8 -24 50 -27 59 -5 3 8 15 15 26 15 11 0 20 -7 20 -15 0 -8 6 -15
14 -15 11 0 10 11 -7 55 -24 60 -33 67 -46 33 -5 -13 -14 -36 -21 -53 -11 -28
-12 -29 -25 -11 -10 14 -11 24 -4 38 13 25 -5 48 -37 48 -22 0 -24 -4 -24 -55z
m48 23 c-7 -19 -38 -22 -38 -4 0 10 9 16 21 16 12 0 19 -5 17 -12z"/>
<path d="M1500 295 c0 -55 0 -55 31 -55 17 0 28 4 24 10 -3 6 -14 10 -23 10
-14 0 -17 8 -14 45 3 28 0 45 -7 45 -7 0 -11 -22 -11 -55z"/>
<path d="M1570 295 c0 -54 0 -55 30 -55 17 0 30 5 30 11 0 6 -9 9 -20 6 -15
-4 -20 0 -20 14 0 12 5 16 14 13 8 -3 17 -1 21 5 3 7 -2 11 -14 11 -12 0 -21
7 -21 15 0 8 9 15 20 15 11 0 20 5 20 10 0 6 -13 10 -30 10 -30 0 -30 -1 -30
-55z"/>
<path d="M750 116 c0 -52 2 -56 24 -56 28 0 51 24 40 42 -4 7 -8 24 -8 38 -1
20 -7 26 -28 28 -28 3 -28 2 -28 -52z m45 -26 c0 -22 -29 -18 -33 3 -3 14 1
18 15 15 10 -2 18 -10 18 -18z"/>
<path d="M820 160 c0 -5 7 -10 15 -10 11 0 15 -12 15 -45 0 -25 5 -45 10 -45
6 0 10 20 10 45 0 33 4 45 15 45 8 0 15 5 15 10 0 6 -18 10 -40 10 -22 0 -40
-4 -40 -10z"/>
<path d="M910 115 c0 -30 5 -55 10 -55 6 0 10 9 10 19 0 13 8 21 22 23 46 6
29 68 -18 68 -22 0 -24 -4 -24 -55z m48 18 c-5 -25 -28 -28 -28 -4 0 12 6 21
16 21 9 0 14 -7 12 -17z"/>
</g>
</svg>
